<?xml version="1.0" standalone="no"?>
<!DOCTYPE svg PUBLIC "-//W3C//DTD SVG 20010904//EN"
 "http://www.w3.org/TR/2001/REC-SVG-20010904/DTD/svg10.dtd">
<svg version="1.0" xmlns="http://www.w3.org/2000/svg"
 width="300.000000pt" height="300.000000pt" viewBox="0 0 300.000000 300.000000"
 preserveAspectRatio="xMidYMid meet">
<metadata>
Created by potrace 1.11, written by Peter Selinger 2001-2013
</metadata>
<g transform="translate(0.000000,300.000000) scale(0.100000,-0.100000)"
fill="#000000" stroke="none">
<path d="M625 2942 c-1 -2 -47 -5 -100 -7 -54 -3 -107 -7 -117 -11 -16 -5 -16
-7 -4 -20 8 -8 17 -14 21 -14 4 0 12 -6 20 -12 24 -24 55 -48 55 -44 0 5 39
-27 86 -71 19 -17 34 -28 34 -25 0 4 11 -4 24 -18 13 -14 33 -31 44 -39 12 -8
19 -18 16 -23 -3 -5 -1 -7 5 -6 16 4 81 -55 240 -215 157 -159 201 -206 201
-219 0 -5 5 -6 10 -3 5 3 10 0 10 -9 0 -8 4 -16 8 -18 4 -1 34 -37 67 -78 32
-41 64 -78 69 -82 6 -4 7 -8 2 -8 -5 0 0 -8 10 -17 24 -22 59 -75 56 -85 -1
-5 5 -8 14 -8 8 0 12 -4 9 -10 -3 -5 -1 -10 5 -10 6 0 9 -4 6 -9 -4 -5 -3 -11
2 -13 10 -4 72 -96 72 -108 0 -4 4 -10 8 -12 15 -6 72 -115 64 -123 -4 -5 -2
-5 4 -2 11 6 49 -61 40 -70 -11 -11 -399 -4 -406 7 -4 7 -11 11 -16 11 -5 -1
-16 4 -25 11 -8 7 -21 14 -28 16 -6 1 -29 13 -50 27 -21 13 -42 21 -45 18 -3
-4 -6 -1 -6 6 0 7 -4 9 -10 6 -5 -3 -10 -1 -10 4 0 6 -7 11 -15 11 -8 0 -31 9
-52 19 -21 11 -60 29 -88 41 -27 11 -59 25 -70 30 -18 8 -71 30 -85 35 -3 1
-12 5 -20 8 -18 8 -73 30 -80 32 -3 1 -12 5 -20 8 -8 4 -53 20 -100 37 -47 17
-92 33 -100 37 -8 3 -19 7 -25 8 -5 2 -47 17 -92 33 -46 17 -83 28 -83 25 0
-3 -11 2 -25 11 -13 9 -37 16 -52 16 l-28 -1 26 -22 c52 -44 69 -57 69 -52 0
6 149 -97 178 -124 12 -11 22 -18 22 -15 0 5 2 3 60 -47 19 -17 47 -37 63 -45
15 -8 27 -18 27 -22 0 -4 20 -20 45 -35 25 -16 45 -34 45 -40 0 -5 3 -8 6 -4
3 3 24 -12 45 -34 21 -22 39 -37 39 -33 0 4 16 -9 35 -29 20 -21 38 -37 41
-37 3 0 18 -12 33 -27 15 -16 49 -47 74 -71 26 -23 47 -47 47 -52 0 -6 5 -10
11 -10 15 0 39 -26 32 -34 -4 -3 -2 -6 4 -6 13 0 93 -79 93 -92 0 -5 5 -6 10
-3 6 3 10 1 10 -5 0 -6 15 -26 33 -44 17 -19 52 -57 77 -86 25 -29 51 -59 58
-66 7 -8 11 -14 8 -14 -3 0 2 -8 12 -18 34 -36 72 -82 72 -87 0 -3 9 -15 20
-27 11 -12 20 -28 20 -35 0 -7 4 -13 8 -13 5 0 24 -24 42 -52 19 -29 38 -54
42 -56 4 -2 8 -10 8 -17 0 -8 11 -26 25 -41 14 -15 23 -29 21 -32 -3 -2 2 -11
10 -19 8 -8 11 -20 7 -26 -3 -7 -2 -9 2 -4 7 5 97 -141 100 -163 1 -3 19 -41
40 -85 37 -78 47 -101 59 -138 8 -23 31 -17 32 9 1 10 2 25 3 33 1 9 5 10 14
5 7 -5 5 -2 -4 6 -15 15 -24 66 -34 210 -6 69 -15 166 -20 200 -2 19 -7 55
-10 80 -21 156 -66 307 -125 418 -22 39 -36 72 -32 72 4 0 2 4 -4 8 -7 4 -32
35 -57 69 -56 75 -80 104 -129 154 -41 40 -49 63 -20 55 9 -2 31 -7 47 -10 55
-11 70 -14 140 -31 144 -33 132 -23 200 -180 59 -139 147 -432 170 -570 3 -16
7 -41 10 -55 23 -124 44 -344 39 -417 -5 -77 13 -65 21 15 4 37 9 79 11 93 18
116 24 652 9 871 -3 54 -4 98 -1 98 2 0 35 -14 73 -32 37 -18 71 -31 76 -30 4
1 7 -3 7 -9 0 -5 5 -7 10 -4 6 3 10 1 10 -4 0 -6 7 -11 15 -11 8 0 15 -3 15
-8 0 -4 13 -13 28 -19 33 -15 36 -29 36 -168 0 -88 -10 -290 -14 -290 -1 0 -3
-13 -5 -30 -5 -51 -26 -162 -44 -235 -7 -25 -14 -53 -16 -63 -13 -57 -76 -225
-117 -312 -5 -11 11 3 36 30 25 28 46 54 46 58 0 4 8 17 18 27 21 23 126 230
147 290 1 3 4 12 8 20 19 48 66 211 73 255 1 11 6 31 9 45 7 29 13 66 21 135
3 28 10 54 14 59 9 9 79 -81 80 -101 0 -7 5 -13 11 -13 5 0 8 -4 4 -9 -3 -5 0
-15 7 -23 7 -7 15 -20 17 -28 2 -8 10 -37 17 -65 15 -56 13 -224 -4 -265 -6
-14 -20 -52 -33 -85 -20 -55 -94 -193 -108 -205 -14 -11 -83 -111 -80 -115 2
-2 25 14 51 35 26 20 44 40 41 44 -4 3 0 6 7 6 18 0 260 247 260 266 0 8 5 14
10 14 6 0 10 7 10 15 0 9 7 18 15 21 8 4 13 10 10 14 -3 5 -1 11 5 15 29 18
115 208 126 280 11 65 6 157 -11 225 -7 28 -31 80 -37 80 -4 0 -7 3 -6 8 4 13
-50 86 -96 130 -25 24 -46 47 -46 52 0 5 -8 11 -17 14 -10 4 -33 20 -52 36
-18 17 -37 30 -42 30 -4 0 -14 6 -21 13 -7 7 -29 20 -49 30 -20 9 -38 25 -41
34 -2 10 -3 114 -3 231 1 163 4 216 14 222 9 5 10 10 2 14 -7 5 -11 47 -11
117 0 146 -14 177 -121 264 -20 17 -128 61 -170 69 -8 2 -25 6 -39 9 -36 9
-84 16 -173 23 -62 6 -81 4 -87 -7 -5 -7 -6 -16 -1 -19 7 -5 140 -272 156
-315 5 -11 7 -23 7 -27 -1 -5 2 -8 8 -8 6 0 9 -3 8 -7 0 -5 2 -17 7 -28 34
-90 68 -183 70 -197 2 -9 9 -27 16 -40 7 -13 12 -24 11 -25 -1 -2 -2 -4 -1 -5
0 -2 2 -10 4 -18 1 -8 9 -35 16 -60 7 -25 12 -49 10 -54 -1 -4 3 -14 10 -22
18 -22 -21 -30 -109 -22 -42 3 -91 7 -108 7 -24 1 -33 6 -37 24 -7 27 -20 114
-21 142 -1 11 -4 22 -8 25 -3 3 -9 23 -11 45 -3 22 -8 51 -12 65 -3 14 -8 36
-10 50 -2 14 -9 43 -15 65 -6 22 -15 56 -20 75 -5 19 -14 53 -20 75 -6 22 -14
54 -17 70 -3 17 -9 35 -14 41 -5 6 -10 24 -12 40 -2 16 -11 46 -20 68 -10 21
-17 41 -17 45 0 3 -14 42 -31 86 -16 44 -31 85 -33 90 -1 6 -7 19 -13 30 -6
11 -11 23 -12 28 -2 14 -30 77 -40 89 -41 49 -71 78 -80 78 -6 0 -11 3 -11 8
0 4 -10 12 -23 18 -12 6 -40 21 -63 32 -22 12 -47 22 -55 24 -8 2 -16 5 -19 8
-10 11 -155 45 -235 56 -16 2 -41 6 -55 9 -58 11 -465 26 -475 17z"/>
<path d="M690 1080 c0 -16 4 -51 10 -77 5 -26 12 -59 14 -73 4 -20 22 -101 41
-175 2 -10 8 -26 28 -80 7 -16 12 -32 12 -35 2 -17 60 -128 94 -178 35 -52
191 -220 191 -206 0 3 15 -6 33 -20 39 -30 166 -90 227 -107 66 -18 74 -20 90
-23 9 -1 21 -5 27 -9 6 -4 29 -9 50 -12 21 -2 49 -6 63 -9 14 -3 51 -7 83 -10
45 -3 57 -1 57 10 0 8 -4 14 -9 14 -5 0 -57 32 -116 70 -108 72 -121 81 -156
112 -10 10 -21 18 -24 18 -3 0 -13 7 -22 14 -10 8 -44 36 -75 62 -32 25 -58
50 -58 55 0 5 -5 9 -11 9 -16 0 -299 290 -299 306 0 4 -35 46 -58 70 -7 8 -10
14 -5 14 4 0 3 4 -3 8 -15 10 -89 125 -86 135 1 4 -2 7 -8 7 -5 0 -10 6 -10
14 0 8 -3 16 -7 18 -5 2 -19 27 -32 56 -27 59 -41 66 -41 22z"/>
<path d="M1977 133 c-4 -3 -7 -27 -7 -51 0 -58 8 -50 13 11 5 49 4 51 -6 40z"/>
</g>
</svg>
